# xmcd CD database file
#
# Track frame offsets:
#	180
#	8146
#	14851
#	30223
#	44375
#	51243
#	56945
#	62207
#	67546
#	69456
#	78461
#	89639
#	109006
#	119473
#	129897
#
# Disc length: 1843 seconds
#
# Revision: 0
# Processed by: cddbd v1.5.2PL0 Copyright (c) Steve Scherf et al.
# Submitted via: CDex 1.40Beta8
#
DISCID=ca07310f
DTITLE=A P Johnston - Greatest Hits and Ex Misses
DYEAR=1981
DGENRE=Country
TTITLE0=Chook's Legs
TTITLE1=Rough As Guts
TTITLE2=Riley The One Legged Racehorse
TTITLE3=Heaven, Hill Or The Flowerdale Pub
TTITLE4=I Love You Just Like A Pie
TTITLE5=Tamworth R.i.p.
TTITLE6=Toowoomba Moon
TTITLE7=Murwillumbah
TTITLE8=Condong, Pearl By Tweed
TTITLE9=Peanut Memories
TTITLE10=The High's Don't Roll So Well
TTITLE11=I Want You To Know
TTITLE12=This Town Will Remember
TTITLE13=Sitting On My Face
TTITLE14=Heaven Help The Ladies
EXTD=YEAR: 1981 ID3G: 2
EXTT0=
EXTT1=
EXTT2=
EXTT3=
EXTT4=
EXTT5=
EXTT6=
EXTT7=
EXTT8=
EXTT9=
EXTT10=
EXTT11=
EXTT12=
EXTT13=
EXTT14=
PLAYORDER=
